<?xml version="1.0" encoding="UTF-8"?>
<svg version="1.1" xmlns="http://www.w3.org/2000/svg" width="500" height="500">
<path d="M0 0 C1.04542969 0.56460938 2.09085937 1.12921875 3.16796875 1.7109375 C8.80628001 4.88388413 14.15739032 8.39534388 19.4375 12.125 C20.01709473 12.53282715 20.59668945 12.9406543 21.19384766 13.36083984 C24.80493584 15.96481813 27.90441205 18.80981004 31 22 C32.11204481 22.95283135 33.235557 23.89260821 34.375 24.8125 C38.35715589 28.18135206 41.64897759 32.0172906 45 36 C46.08294706 37.25033466 47.16625923 38.50035323 48.25 39.75 C54 46.49933155 54 46.49933155 54 49 C54.66 49 55.32 49 56 49 C60 54.29411765 60 54.29411765 60 58 C60.66 58 61.32 58 62 58 C62.70576172 59.42892578 62.70576172 59.42892578 63.42578125 60.88671875 C64.05457916 62.15369961 64.68349148 63.42062369 65.3125 64.6875 C65.62123047 65.31333984 65.92996094 65.93917969 66.24804688 66.58398438 C67.59170437 69.28544313 68.95326648 71.92482511 70.546875 74.48828125 C72.39866427 77.68908905 73.67190479 81.03862827 74.9375 84.5 C75.19764893 85.20705078 75.45779785 85.91410156 75.72583008 86.64257812 C81.65238508 102.92549028 86.10059668 119.77227396 86.203125 137.21484375 C86.20882507 137.988246 86.21452515 138.76164825 86.22039795 139.55848694 C86.22979862 141.19140275 86.23636218 142.82433711 86.24023438 144.45727539 C86.24985081 146.89960987 86.28088341 149.34106869 86.3125 151.78320312 C86.38234964 162.23436418 85.29976787 171.79749712 83 182 C82.74581299 183.20809326 82.49162598 184.41618652 82.22973633 185.66088867 C78.94371007 201.18204232 72.10532521 214.93772063 65 229 C63.99908811 230.9995438 62.99878549 232.9993932 62 235 C61.34 235 60.68 235 60 235 C60 235.99 60 236.98 60 238 C59.34 238 58.68 238 58 238 C57.75378906 238.71800781 57.50757813 239.43601562 57.25390625 240.17578125 C53.26422581 249.16188393 44.64654531 256.85116743 38 264 C37.33871094 264.72703125 36.67742187 265.4540625 35.99609375 266.203125 C16.40685537 286.87032906 -10.1759139 299.71747517 -37 308 C-37 310.55191057 -36.20076078 311.46023203 -34.7980957 313.58374023 C-34.31002441 314.32729767 -33.82195312 315.0708551 -33.3190918 315.83694458 C-32.77679932 316.65258881 -32.23450684 317.46823303 -31.67578125 318.30859375 C-31.11052734 319.16613251 -30.54527344 320.02367126 -29.96289062 320.90719604 C-28.08422661 323.75383489 -26.19857258 326.59576534 -24.3125 329.4375 C-23.00463611 331.41484834 -21.69693965 333.39230744 -20.3894043 335.36987305 C-9.35373646 352.03975826 1.80541815 368.62619704 13.0115509 385.18183899 C15.16711318 388.36720978 17.32000213 391.55438244 19.47259521 394.74176025 C20.99469782 396.99216082 22.52197861 399.23899036 24.04931641 401.48583984 C24.97714698 402.85887452 25.90473284 404.23207461 26.83203125 405.60546875 C27.25796066 406.22867508 27.68389008 406.85188141 28.12272644 407.49397278 C31 411.77239897 31 411.77239897 31 414 C31.66 414 32.32 414 33 414 C33.30292969 414.56847656 33.60585938 415.13695312 33.91796875 415.72265625 C36.03361933 419.62196301 38.17469701 423.36516109 40.8125 426.9375 C43 430 43 430 43 432 C43.66 432 44.32 432 45 432 C45.32613281 432.59167969 45.65226562 433.18335938 45.98828125 433.79296875 C46.42527344 434.58316406 46.86226563 435.37335938 47.3125 436.1875 C47.74175781 436.96480469 48.17101562 437.74210937 48.61328125 438.54296875 C50.03073378 441.05445506 51.51625854 443.52709757 53 446 C5.81 446 -41.38 446 -90 446 C-90.33 445.01 -90.66 444.02 -91 443 C-91.66 443 -92.32 443 -93 443 C-93.29350342 442.45169022 -93.58700684 441.90338043 -93.8894043 441.3384552 C-96.92105938 435.76688406 -100.23105777 430.49331629 -103.8125 425.26171875 C-104.36981812 424.44032913 -104.92713623 423.61893951 -105.50134277 422.7726593 C-106.70295361 421.00181706 -107.90608438 419.23200539 -109.1105957 417.46313477 C-112.38530192 412.65241826 -115.64652062 407.83259191 -118.90625 403.01171875 C-119.57974487 402.01574677 -120.25323975 401.01977478 -120.94714355 399.99362183 C-127.88389012 389.7186619 -134.69811628 379.36451541 -141.5 369 C-151.06558191 354.43033333 -160.72902649 339.93271761 -170.5 325.5 C-180.87963534 310.16822721 -191.12501277 294.75459919 -201.287323 279.27801514 C-213.65522814 260.44912498 -226.22996178 241.76260321 -238.86561584 223.11257935 C-239.81715767 221.70789945 -240.76734575 220.30230107 -241.71585083 218.89556885 C-242.55038109 217.66369517 -243.3920384 216.43660917 -244.24191284 215.215271 C-247 211.21364841 -247 211.21364841 -247 209 C-247.66 209 -248.32 209 -249 209 C-249 208.01 -249 207.02 -249 206 C-249.66 206 -250.32 206 -251 206 C-252.65 202.7 -254.3 199.4 -256 196 C-255.07823597 195.99761165 -254.15647194 195.99522329 -253.20677567 195.99276257 C-230.74555531 195.93354534 -208.28444166 195.85795225 -185.82333755 195.76428509 C-174.96117373 195.71937985 -164.0990423 195.67995305 -153.23681641 195.65356445 C-143.76582496 195.63054166 -134.29493651 195.59709588 -124.82402682 195.55129844 C-119.81241008 195.52742394 -114.80089497 195.50865738 -109.78922272 195.50238609 C-105.06468085 195.49630907 -100.34039884 195.47621525 -95.61595345 195.44572449 C-93.88912579 195.43698604 -92.16226412 195.43321291 -90.43541527 195.43499184 C-73.14754527 195.44716973 -58.16801619 192.71237071 -45.13671875 180.453125 C-36.32504789 170.33661805 -31.18920911 157.46627454 -31.65625 143.98046875 C-33.27994499 129.90229517 -38.73297684 117.02719325 -50 108 C-61.29147082 100.17001286 -71.4478355 97.83247936 -85.0234375 98.0703125 C-87.20050757 98.0812114 -89.3775955 98.08892523 -91.5546875 98.09375 C-94.96850437 98.10160915 -98.37800738 98.12506792 -101.79101562 98.20214844 C-120.49497077 98.59654148 -120.49497077 98.59654148 -125.85766602 95.17871094 C-127.59262567 92.84414449 -128.86156313 90.54973573 -130.05651855 87.90325928 C-132.00480269 83.97303905 -134.64757038 80.43637277 -137.10546875 76.8125 C-138.25482787 75.06720484 -139.40063941 73.31956917 -140.54321289 71.56982422 C-153.8029394 51.30030185 -167.24588561 31.16130099 -180.82203674 11.1026001 C-185.84184592 3.68448774 -190.85462959 -3.7382691 -195.83984375 -11.1796875 C-196.36050919 -11.95337677 -196.88117462 -12.72706604 -197.4176178 -13.52420044 C-201 -18.88445015 -201 -18.88445015 -201 -20 C-184.656403 -20.17834355 -168.31273209 -20.34390375 -151.96886063 -20.49477577 C-144.37793026 -20.56513764 -136.78708013 -20.63948177 -129.19628906 -20.72363281 C-122.57025303 -20.79707806 -115.94419081 -20.86261174 -109.31798816 -20.91914403 C-105.81846325 -20.94926379 -102.31906845 -20.98300479 -98.81967926 -21.02626419 C-62.93688165 -21.46324474 -31.86586082 -17.272755 0 0 Z " fill="#E8E5DE" transform="translate(400,37)"/>
<path d="M0 0 C18.26296062 -0.23374222 36.5255324 -0.41001034 54.78966618 -0.51812172 C63.27036135 -0.56965748 71.75012648 -0.63989806 80.23022461 -0.75439453 C87.62273405 -0.85415891 95.01456994 -0.91860283 102.40773386 -0.94088495 C106.32175909 -0.95390848 110.23385776 -0.98444174 114.14726448 -1.05730057 C117.83410482 -1.12538261 121.51823345 -1.14607986 125.2056427 -1.13107681 C127.19778627 -1.13512354 129.18963666 -1.1888423 131.18101501 -1.24420166 C139.77003791 -1.14548225 139.77003791 -1.14548225 143.28544712 2.12847137 C145.09420645 4.67924182 146.5569576 7.22923061 148 10 C149.08254829 11.66179328 150.17985818 13.31415804 151.2980957 14.95214844 C152.42534274 16.67033781 153.55119009 18.38944613 154.67578125 20.109375 C155.92896635 22.0182752 157.18222384 23.92712787 158.43554688 25.8359375 C160.37142818 28.78804037 162.30642289 31.74071691 164.23999023 34.69433594 C173.4704375 48.79641258 173.4704375 48.79641258 183.15084839 62.58966064 C189.02066522 70.72200609 194.46901184 79.14792355 199.97973633 87.52539062 C201.95402606 90.52510956 203.93478536 93.5204868 205.91601562 96.515625 C207.18268 98.43724408 208.44896983 100.35911011 209.71484375 102.28125 C210.59607155 103.61258972 210.59607155 103.61258972 211.49510193 104.9708252 C214.27998927 109.21484316 216.86710226 113.39087147 219 118 C212.32339086 119.20449043 205.69445833 119.19812613 198.92382812 119.25634766 C196.96406288 119.27825165 196.96406288 119.27825165 194.96470642 119.30059814 C182.97106186 119.4302994 170.97652941 119.49664432 158.98232269 119.54844093 C150.12593846 119.58739864 141.27082016 119.65590726 132.41499186 119.76298869 C126.17447398 119.83589179 119.93430241 119.87428172 113.69337606 119.88746679 C109.9707711 119.89631785 106.24973899 119.92045171 102.52760315 119.98213577 C98.37632262 120.05016471 94.22799954 120.04687852 90.07617188 120.03759766 C88.23689369 120.08377731 88.23689369 120.08377731 86.36045837 120.13088989 C78.21247528 120.03173533 78.21247528 120.03173533 74.74440193 117.08063698 C72.93993532 114.79726498 71.45513105 112.51719294 70 110 C69.00884565 108.53528292 68.01104545 107.07501588 67.00341797 105.62158203 C65.99591712 104.08611769 64.99233245 102.54807831 63.9921875 101.0078125 C63.15936752 99.7367012 63.15936752 99.7367012 62.3097229 98.43991089 C61.11634443 96.61832118 59.92452178 94.79571141 58.73413086 92.97216797 C55.52741691 88.06124241 52.30751656 83.15899545 49.0859375 78.2578125 C48.42192932 77.24752991 47.75792114 76.23724731 47.0737915 75.1963501 C38.82154796 62.66182897 30.40930751 50.23540855 21.98388672 37.81689453 C19.21063307 33.72699225 16.44773948 29.63031484 13.6953125 25.52636719 C12.51157084 23.76234665 11.32515836 22.00011671 10.13671875 20.23925781 C8.27817193 17.47910589 6.43430372 14.70967346 4.59375 11.9375 C4.01733765 11.08583252 3.44092529 10.23416504 2.8470459 9.35668945 C2.06714294 8.17272583 2.06714294 8.17272583 1.27148438 6.96484375 C0.80754272 6.2699585 0.34360107 5.57507324 -0.13439941 4.85913086 C-1 3 -1 3 0 0 Z " fill="#FAB12E" transform="translate(1,16)"/>
<path d="M0 0 C0.66 0 1.32 0 2 0 C2.33 0.66 2.66 1.32 3 2 C4.65 2 6.3 2 8 2 C8 3.32 8 4.64 8 6 C8.33 6.33 8.66 6.66 9 7 C10.46717294 9.36377863 11.09017484 10.45895094 10.625 13.25 C10.41875 13.8275 10.2125 14.405 10 15 C0 3.07692308 0 3.07692308 0 0 Z " fill="#EFB341" transform="translate(36,72)"/>
<path d="M0 0 C3.34292611 3.1019945 5.76244801 6.43575362 8.25 10.25 C8.95640625 11.32765625 9.6628125 12.4053125 10.390625 13.515625 C10.92171875 14.33546875 11.4528125 15.1553125 12 16 C11.67 16.66 11.34 17.32 11 18 C10.34 17.67 9.68 17.34 9 17 C9 16.01 9 15.02 9 14 C7.35 13.67 5.7 13.34 4 13 C3.896875 12.29875 3.79375 11.5975 3.6875 10.875 C2.90723399 7.61206941 1.52217762 4.9781736 0 2 C0 1.34 0 0.68 0 0 Z " fill="#F1B441" transform="translate(202,107)"/>
<path d="M0 0 C4.29 0.33 8.58 0.66 13 1 C11 3 11 3 8.8359375 3.1953125 C7.61777344 3.16050781 7.61777344 3.16050781 6.375 3.125 C5.55773437 3.10695313 4.74046875 3.08890625 3.8984375 3.0703125 C3.27195312 3.04710937 2.64546875 3.02390625 2 3 C2.33 4.32 2.66 5.64 3 7 C3.66 7 4.32 7 5 7 C4.67 8.32 4.34 9.64 4 11 C3.13341385 9.73760288 2.28207941 8.46472499 1.4375 7.1875 C0.72400391 6.12595703 0.72400391 6.12595703 -0.00390625 5.04296875 C-1 3 -1 3 0 0 Z " fill="#ECB650" transform="translate(1,16)"/>
<path d="M0 0 C3.30044826 3.077445 5.75816419 6.36878825 8.25 10.125 C8.95640625 11.17945313 9.6628125 12.23390625 10.390625 13.3203125 C12 16 12 16 12 18 C8.21781978 16.73927326 7.89960696 15.53835626 6 12.125 C4.01254866 8.50118762 4.01254866 8.50118762 1.3125 5.4296875 C0 4 0 4 0 0 Z " fill="#E8B645" transform="translate(155,37)"/>
<path d="M0 0 C0.99 0 1.98 0 3 0 C4 1.66666667 5 3.33333333 6 5 C6.99 5 7.98 5 9 5 C10.33332095 7.6666419 9.67102033 9.16680303 9 12 C8.34 12 7.68 12 7 12 C5.2734375 9.62890625 5.2734375 9.62890625 3.375 6.5625 C2.74335937 5.55316406 2.11171875 4.54382813 1.4609375 3.50390625 C0 1 0 1 0 0 Z " fill="#F1B045" transform="translate(54,99)"/>
<path d="M0 0 C3.08089673 2.77280706 4.68775452 5.06326356 6 9 C4.02 9.33 2.04 9.66 0 10 C0 9.34 0 8.68 0 8 C0.99 8 1.98 8 3 8 C3 7.34 3 6.68 3 6 C0.03 5.505 0.03 5.505 -3 5 C-3 4.01 -3 3.02 -3 2 C-2.34 2 -1.68 2 -1 2 C-0.67 1.34 -0.34 0.68 0 0 Z " fill="#EDAD46" transform="translate(214,125)"/>
<path d="M0 0 C0.66 0 1.32 0 2 0 C2.33 1.32 2.66 2.64 3 4 C4.32 3.67 5.64 3.34 7 3 C7.66 4.32 8.32 5.64 9 7 C8.34 7 7.68 7 7 7 C6.67 8.32 6.34 9.64 6 11 C4.9944239 9.54550599 3.99569565 8.08627557 3 6.625 C2.443125 5.81289062 1.88625 5.00078125 1.3125 4.1640625 C0 2 0 2 0 0 Z " fill="#EBB244" transform="translate(63,112)"/>
<path d="M0 0 C4.20240011 3.71750779 6.99782679 8.31660979 10 13 C9.67 13.66 9.34 14.32 9 15 C7 13.1875 7 13.1875 5 11 C5 10.01 5 9.02 5 8 C4.34 8 3.68 8 3 8 C0 2.25 0 2.25 0 0 Z " fill="#EBB649" transform="translate(190,89)"/>
<path d="M0 0 C0.99 1.32 1.98 2.64 3 4 C2.67 4.66 2.34 5.32 2 6 C1.34 5.34 0.68 4.68 0 4 C-0.99 5.32 -1.98 6.64 -3 8 C-3.99 6.02 -4.98 4.04 -6 2 C-5.38125 1.855625 -4.7625 1.71125 -4.125 1.5625 C-1.96741678 1.06847775 -1.96741678 1.06847775 0 0 Z " fill="#F3B23E" transform="translate(76,121)"/>
<path d="M0 0 C0.33 0 0.66 0 1 0 C1 2.64 1 5.28 1 8 C2.65 8 4.3 8 6 8 C4.3545622 9.68762851 2.68711423 11.3540349 1 13 C0.67 13 0.34 13 0 13 C0 8.71 0 4.42 0 0 Z " fill="#F2EFE8" transform="translate(369,177)"/>
<path d="M0 0 C3.25524265 3.02272532 5.61820737 6.25718301 8 10 C7.67 10.66 7.34 11.32 7 12 C4.04485124 9.24865461 1.8475191 6.60266225 0 3 C0 2.01 0 1.02 0 0 Z " fill="#E9B54D" transform="translate(169,58)"/>
<path d="M0 0 C3 1 3 1 4 2.875 C4.33 3.57625 4.66 4.2775 5 5 C5.7734375 5.7115625 5.7734375 5.7115625 6.5625 6.4375 C8.45263121 8.49199044 8.6324247 10.27994277 9 13 C4.76568424 9.39299028 2.5307901 4.85413839 0 0 Z " fill="#E5B44A" transform="translate(6,27)"/>
<path d="M0 0 C4.81740064 2.47046187 4.81740064 2.47046187 5.625 4.8125 C5.74875 5.534375 5.8725 6.25625 6 7 C6.96887581 9.01526169 7.9641321 11.01833966 9 13 C8.34 13 7.68 13 7 13 C5.2734375 10.6640625 5.2734375 10.6640625 3.375 7.625 C2.74335938 6.62726563 2.11171875 5.62953125 1.4609375 4.6015625 C0 2 0 2 0 0 Z " fill="#EEEEE6" transform="translate(294,457)"/>
<path d="M0 0 C2.25 -0.3125 2.25 -0.3125 5 0 C7.3125 2.5 7.3125 2.5 9 5 C8.67 5.66 8.34 6.32 8 7 C7.34 6.34 6.68 5.68 6 5 C5.34 4.690625 4.68 4.38125 4 4.0625 C2 3 2 3 0 0 Z " fill="#E6B344" transform="translate(137,16)"/>
<path d="M0 0 C0.33 0.66 0.66 1.32 1 2 C-0.2363168 2.89422914 -1.48971562 3.76487891 -2.75 4.625 C-3.44609375 5.11226563 -4.1421875 5.59953125 -4.859375 6.1015625 C-7 7 -7 7 -9.265625 6.1484375 C-9.83796875 5.76945312 -10.4103125 5.39046875 -11 5 C-10.37351562 4.72285156 -9.74703125 4.44570313 -9.1015625 4.16015625 C-8.28429687 3.79792969 -7.46703125 3.43570312 -6.625 3.0625 C-5.81289063 2.70285156 -5.00078125 2.34320313 -4.1640625 1.97265625 C-2.76316215 1.3430097 -1.37374716 0.68687358 0 0 Z " fill="#EDECE5" transform="translate(412,320)"/>
<path d="M0 0 C3.35620271 1.38877354 5.07298728 2.91677965 7 6 C7 6.66 7 7.32 7 8 C6.01 8 5.02 8 4 8 C0 2 0 2 0 0 Z " fill="#F1B73D" transform="translate(177,72)"/>
<path d="M0 0 C3.08089673 2.77280706 4.68775452 5.06326356 6 9 C4.125 8.4375 4.125 8.4375 2 7 C0.75 3.375 0.75 3.375 0 0 Z " fill="#ECB64C" transform="translate(202,107)"/>
<path d="M0 0 C3.50015029 2.33343353 4.40382422 4.16917814 6 8 C5.67 8.66 5.34 9.32 5 10 C4.67 9.01 4.34 8.02 4 7 C3.34 7 2.68 7 2 7 C0.5393715 4.35261084 0 3.10551666 0 0 Z " fill="#F1EFE8" transform="translate(305,473)"/>
<path d="M0 0 C3.9492568 0.55105909 7.34920174 1.38935371 11 3 C11 3.66 11 4.32 11 5 C9.53932801 4.54917531 8.08151968 4.08906463 6.625 3.625 C5.81289063 3.36976563 5.00078125 3.11453125 4.1640625 2.8515625 C2 2 2 2 0 0 Z " fill="#F1F1EA" transform="translate(333,135)"/>
<path d="M0 0 C1.32 1.32 2.64 2.64 4 4 C3.67 4.66 3.34 5.32 3 6 C1.68 6 0.36 6 -1 6 C-0.67 4.02 -0.34 2.04 0 0 Z " fill="#EDB443" transform="translate(149,28)"/>
</svg>
