<?xml version="1.0" encoding="UTF-8"?>
<svg version="1.1" xmlns="http://www.w3.org/2000/svg" width="500" height="500">
<path d="M0 0 C7.84290279 -0.10232824 15.68563027 -0.17185119 23.52905273 -0.21972656 C26.19148591 -0.23742784 28.85303133 -0.26689782 31.51538086 -0.30175781 C55.22612353 -0.6042021 75.00541743 0.70423617 93 18 C107.25011418 34.27925666 112.30056104 51.25721268 111.20703125 72.52636719 C109.86556054 88.5544111 101.05436741 103.58723499 89 114 C81.89344751 119.46215925 73.20505592 126 64 126 C70.43201857 137.65957736 78.02782727 148.50520521 85.55249023 159.47387695 C87.23296473 161.92651915 88.90769269 164.38301041 90.58203125 166.83984375 C91.09659378 167.5857225 91.61115631 168.33160126 92.14131165 169.1000824 C92.61908554 169.80174026 93.09685944 170.50339813 93.58911133 171.22631836 C94.00767899 171.83632187 94.42624664 172.44632538 94.85749817 173.07481384 C96.17875343 175.30121057 97.09195418 177.57930036 98 180 C52.89061617 186.91725463 52.89061617 186.91725463 39.24938965 178.25292969 C28.2653477 168.71581823 21.9757626 154.41718876 15.7734375 141.5390625 C12.43806091 134.69589027 8.31414615 128.57046226 3.87432861 122.40774536 C1.95810299 119.73118861 0.12019772 117.00209584 -1.7265625 114.27734375 C-2.42555664 113.25237793 -3.12455078 112.22741211 -3.84472656 111.17138672 C-7.65190743 105.56929344 -11.42347898 99.94365315 -15.1875 94.3125 C-15.8781958 93.28286133 -16.5688916 92.25322266 -17.28051758 91.19238281 C-17.90337646 90.2587793 -18.52623535 89.32517578 -19.16796875 88.36328125 C-19.71735107 87.54126221 -20.2667334 86.71924316 -20.83276367 85.87231445 C-22 84 -22 84 -22 83 C-21.1135228 82.99413376 -20.22704559 82.98826752 -19.31370544 82.98222351 C-10.94222373 82.9242183 -2.57100659 82.85209674 5.80021763 82.76428509 C10.10352757 82.71963809 14.40674408 82.68036964 18.71020508 82.65356445 C22.86658319 82.62747464 27.02260067 82.58703258 31.17875481 82.53681374 C32.76105181 82.52018328 34.34341114 82.50864526 35.92578316 82.50238609 C38.14955194 82.49270297 40.37240604 82.46459574 42.59594727 82.43237305 C43.85947525 82.42126999 45.12300323 82.41016693 46.42481995 82.39872742 C53.06362502 81.65832454 57.61311992 79.13891666 62 74 C64.87768513 69.2745381 64.61578922 64.36724928 64 59 C62.35214594 54.1366037 59.29196822 50.75912243 55 48 C51.29901338 46.34514429 48.55478181 45.91674651 44.59277344 46.359375 C38.19691114 46.96885644 31.96614171 47.42652182 26.74682617 43.15673828 C21.31468241 37.081306 17.33242051 30.01474207 13.25 23 C11.95034469 20.8893157 10.64440194 18.78248928 9.33203125 16.6796875 C0 1.605542 0 1.605542 0 0 Z " fill="#E7E5DE" transform="translate(127,133)"/>
<path d="M0 0 C7.16922649 -0.51446243 14.33438121 -0.9027682 21.51844883 -1.13986778 C24.85995562 -1.25392405 28.17918997 -1.41941112 31.51538086 -1.65966797 C52.98326981 -3.1657626 52.98326981 -3.1657626 59.64459229 2.08432007 C64.27207796 7.24873027 67.50703268 13.03522181 70.56240845 19.22636414 C72.74775284 23.44268662 75.47043975 27.22325107 78.25 31.0625 C86 42.16910609 86 42.16910609 86 45 C67.19 45 48.38 45 29 45 C27.68 42.69 26.36 40.38 25 38 C24.24573169 36.81160984 23.47706711 35.63194753 22.68164062 34.47070312 C22.07080627 33.574422 22.07080627 33.574422 21.44763184 32.66003418 C21.02147583 32.0400354 20.59531982 31.42003662 20.15625 30.78125 C19.70527954 30.11967896 19.25430908 29.45810791 18.78967285 28.77648926 C17.36226387 26.6826185 15.93156886 24.59102848 14.5 22.5 C12.61155637 19.74163502 10.72662574 16.98091777 8.84375 14.21875 C8.41759399 13.59875122 7.99143799 12.97875244 7.55236816 12.33996582 C4.8201699 8.33099393 2.36003249 4.23936791 0 0 Z " fill="#FAB02E" transform="translate(49,133)"/>
<path d="M0 0 C-0.65349567 5.37890865 -1.81188123 10.45222512 -3.25 15.671875 C-3.57726074 16.87822601 -3.57726074 16.87822601 -3.91113281 18.10894775 C-4.60351931 20.65704646 -5.3017729 23.20349633 -6 25.75 C-6.46911431 27.47516139 -6.93786783 29.20042094 -7.40625 30.92578125 C-10.80693459 43.42080377 -10.80693459 43.42080377 -12 47 C-15.51737321 48.17245774 -18.3575132 48.13266285 -22.0625 48.125 C-23.31160156 48.12757813 -24.56070313 48.13015625 -25.84765625 48.1328125 C-29 48 -29 48 -31 47 C-31.65429688 44.99047852 -31.65429688 44.99047852 -32.21875 42.37890625 C-32.42886719 41.44369141 -32.63898438 40.50847656 -32.85546875 39.54492188 C-33.06816406 38.56072266 -33.28085937 37.57652344 -33.5 36.5625 C-33.92039963 34.62483989 -34.34718649 32.68855129 -34.78125 30.75390625 C-34.96751953 29.89095947 -35.15378906 29.0280127 -35.34570312 28.13891602 C-35.87429169 25.81281903 -35.87429169 25.81281903 -38 24 C-39.98 31.59 -41.96 39.18 -44 47 C-46.76375 47.185625 -49.5275 47.37125 -52.375 47.5625 C-53.24431152 47.62381104 -54.11362305 47.68512207 -55.00927734 47.74829102 C-60.77777778 48.11111111 -60.77777778 48.11111111 -63 47 C-63.69607544 45.26748657 -63.69607544 45.26748657 -64.32861328 42.98681641 C-64.56871124 42.13568268 -64.8088092 41.28454895 -65.05618286 40.40762329 C-65.30834564 39.48162323 -65.56050842 38.55562317 -65.8203125 37.6015625 C-66.08383514 36.65566254 -66.34735779 35.70976257 -66.61886597 34.73519897 C-67.17562898 32.73043484 -67.7285073 30.72458848 -68.27783203 28.71777344 C-69.12017915 25.64259959 -69.97505337 22.57112487 -70.83203125 19.5 C-71.3705371 17.55489372 -71.90832154 15.60958754 -72.4453125 13.6640625 C-72.70152374 12.7421109 -72.95773499 11.8201593 -73.22171021 10.87026978 C-73.45550385 10.01283173 -73.68929749 9.15539368 -73.93017578 8.27197266 C-74.13732208 7.51776031 -74.34446838 6.76354797 -74.55789185 5.98648071 C-75 4 -75 4 -75 1 C-70.38 1 -65.76 1 -61 1 C-60.51789063 2.92585937 -60.03578125 4.85171875 -59.5390625 6.8359375 C-58.90140683 9.34905102 -58.26336608 11.86206685 -57.625 14.375 C-57.30789063 15.64601562 -56.99078125 16.91703125 -56.6640625 18.2265625 C-56.2 20.04414063 -56.2 20.04414063 -55.7265625 21.8984375 C-55.44377441 23.01911621 -55.16098633 24.13979492 -54.86962891 25.29443359 C-54.19066857 28.11387135 -54.19066857 28.11387135 -52 30 C-51.79318604 29.19256348 -51.58637207 28.38512695 -51.37329102 27.55322266 C-50.6054083 24.55975234 -49.83549996 21.56681255 -49.06420898 18.57421875 C-48.56662562 16.64102868 -48.07138881 14.70723512 -47.57617188 12.7734375 C-47.26357422 11.56171875 -46.95097656 10.35 -46.62890625 9.1015625 C-46.34088135 7.98088379 -46.05285645 6.86020508 -45.75610352 5.70556641 C-45 3 -45 3 -44 1 C-39.71 1 -35.42 1 -31 1 C-28.75905642 7.49873639 -26.81502319 14.04744715 -24.96484375 20.66796875 C-24.05509858 23.8097203 -23.05671984 26.904985 -22 30 C-19.51882169 22.88514063 -17.56332614 15.70379097 -15.71875 8.40234375 C-15.50992188 7.58894531 -15.30109375 6.77554688 -15.0859375 5.9375 C-14.9007959 5.20402344 -14.7156543 4.47054687 -14.52490234 3.71484375 C-14 2 -14 2 -13 1 C-11.19303615 0.76506569 -9.3785882 0.58628226 -7.5625 0.4375 C-6.57378906 0.35371094 -5.58507812 0.26992187 -4.56640625 0.18359375 C-3.04692417 0.07489412 -1.52336516 0 0 0 Z " fill="#E7E5DF" transform="translate(406,169)"/>
<path d="M0 0 C3.54866304 0.09200825 7.09624054 0.19838813 10.64404297 0.31933594 C11.86865234 0.34640625 13.09326172 0.37347656 14.35498047 0.40136719 C22.37363172 0.6703912 27.8283957 1.28084689 34.33154297 6.19433594 C37.23976931 10.01657627 38.33223384 13.27456837 38.51904297 18.06933594 C37.83386134 22.86560731 36.34924063 26.72936917 32.70654297 30.00683594 C27.38475311 33.45034702 22.94171515 34.32285986 16.64404297 34.19433594 C13.61216797 34.13246094 13.61216797 34.13246094 10.51904297 34.06933594 C10.51904297 38.35933594 10.51904297 42.64933594 10.51904297 47.06933594 C8.03149511 48.31310987 6.29248996 48.20239828 3.51904297 48.19433594 C2.63216797 48.19691406 1.74529297 48.19949219 0.83154297 48.20214844 C-1.48095703 48.06933594 -1.48095703 48.06933594 -3.48095703 47.06933594 C-3.50622705 40.53654808 -3.52378995 34.00377273 -3.53588867 27.47094727 C-3.5409302 25.24665862 -3.54776326 23.02237331 -3.55639648 20.7980957 C-3.56847002 17.60855285 -3.57418699 14.41905365 -3.57861328 11.22949219 C-3.58377457 10.22845963 -3.58893585 9.22742706 -3.59425354 8.19606018 C-3.59432907 7.27518112 -3.5944046 6.35430206 -3.59448242 5.40551758 C-3.59670303 4.59055313 -3.59892365 3.77558868 -3.60121155 2.93592834 C-3.41342856 0.02115802 -2.92766924 0.08182032 0 0 Z M10.51904297 11.06933594 C10.51904297 15.35933594 10.51904297 19.64933594 10.51904297 24.06933594 C17.1662923 24.6370544 17.1662923 24.6370544 23.20654297 22.50683594 C25.09385805 19.00182222 24.56525551 16.83570109 23.51904297 13.06933594 C20.20533296 10.86019593 19.17444087 10.84452041 15.33154297 10.94433594 C13.74341797 10.98558594 12.15529297 11.02683594 10.51904297 11.06933594 Z " fill="#E7E5DE" transform="translate(259.48095703125,168.9306640625)"/>
<path d="M0 0 C4.62 0 9.24 0 14 0 C14.02464347 6.53279339 14.04283291 13.06555998 14.05493164 19.59838867 C14.05997317 21.82267732 14.06680623 24.04696263 14.07543945 26.27124023 C14.08751298 29.46078309 14.09322996 32.65028229 14.09765625 35.83984375 C14.10281754 36.84087631 14.10797882 37.84190887 14.11329651 38.87327576 C14.11337204 39.79415482 14.11344757 40.71503387 14.11352539 41.66381836 C14.115746 42.47878281 14.11796661 43.29374725 14.12025452 44.13340759 C14 46 14 46 13 47 C8.26748847 47.15775038 4.70215739 46.94043148 0 46 C0 30.82 0 15.64 0 0 Z " fill="#E7E5DE" transform="translate(308,170)"/>
<path d="M0 0 C2 5.625 2 5.625 2 9 C2.20625 9.825 2.4125 10.65 2.625 11.5 C3 14 3 14 1 17 C-1.54286509 18.8163322 -2.84185738 19.00658928 -6 18.875 C-9.4719826 17.86233841 -10.93833121 16.96880306 -13 14 C-12.6875 11.5625 -12.6875 11.5625 -12 9 C-12.185625 8.154375 -12.37125 7.30875 -12.5625 6.4375 C-13 4 -13 4 -12.25 1.75 C-9.2544455 -2.4437763 -4.38584269 -0.64709154 0 0 Z M-8 2 C-8 3.32 -8 4.64 -8 6 C-6.02 6 -4.04 6 -2 6 C-2.66 4.68 -3.32 3.36 -4 2 C-5.32 2 -6.64 2 -8 2 Z M-10 10 C-10 10.99 -10 11.98 -10 13 C-7.36 13.66 -4.72 14.32 -2 15 C-1.7763932 12.0745356 -1.7763932 12.0745356 -3 10 C-5.31 10 -7.62 10 -10 10 Z " fill="#DCA04F" transform="translate(390,253)"/>
<path d="M0 0 C2.5 1.5 2.5 1.5 4 4 C4.61481902 7.13264931 4.63618145 9.86931761 4 13 C1.48165527 16.66304688 -0.20283811 17.75360451 -4.4375 19.0625 C-8.90522502 18.98411886 -10.67541167 17.93800829 -14 15 C-15.79215677 12.03904533 -16.01621232 10.39720179 -15.875 6.9375 C-14.86566659 3.54902356 -13.74720111 2.18160088 -11 0 C-7.14087451 -1.28637516 -3.8803216 -0.97593602 0 0 Z M-9.8125 3.0625 C-11.69021039 6.12613274 -11.43729494 8.50164045 -11 12 C-9.5 14.16666667 -9.5 14.16666667 -7 15 C-3.86637282 15.08892339 -3.86637282 15.08892339 -1 14 C0.9192723 11.66349459 1.03237854 10.44250678 0.8125 7.4375 C-0.08312832 4.75061504 -0.65927189 3.58835122 -3 2 C-5.82115488 1.57682677 -7.33950907 1.61281566 -9.8125 3.0625 Z " fill="#EBAE45" transform="translate(297,253)"/>
<path d="M0 0 C1.93681161 -0.08107583 3.8745934 -0.13922475 5.8125 -0.1875 C6.89144531 -0.22230469 7.97039062 -0.25710937 9.08203125 -0.29296875 C12 0 12 0 13.90625 1.3125 C15 3 15 3 14.6875 6.1875 C14.460625 7.115625 14.23375 8.04375 14 9 C13.01 9.33 12.02 9.66 11 10 C11.495 10.763125 11.99 11.52625 12.5 12.3125 C14 15 14 15 14 18 C10.66272214 16.82744291 8.22562513 15.81131596 6 13 C6 12.34 6 11.68 6 11 C5.34 11 4.68 11 4 11 C4 12.98 4 14.96 4 17 C3.34 17.33 2.68 17.66 2 18 C1.01 17.67 0.02 17.34 -1 17 C-1.12036664 11.22240116 -0.8320582 5.72040011 0 0 Z M3 2 C3.33 3.65 3.66 5.3 4 7 C6.97 7.495 6.97 7.495 10 8 C9.67 6.02 9.34 4.04 9 2 C7.02 2 5.04 2 3 2 Z " fill="#E3AC4A" transform="translate(355,253)"/>
<path d="M0 0 C2.5 2.0625 2.5 2.0625 4 4 C3.67 4.99 3.34 5.98 3 7 C2.01 7 1.02 7 0 7 C-0.45375 6.34 -0.9075 5.68 -1.375 5 C-1.91125 4.34 -2.4475 3.68 -3 3 C-5.62625139 2.66574265 -5.62625139 2.66574265 -8 3 C-10.47320536 6.89955312 -10.47320536 6.89955312 -10.5625 11.3125 C-9.01734447 13.24633325 -9.01734447 13.24633325 -6.125 14 C-2.89273387 14.32923267 -2.89273387 14.32923267 -0.625 12.0625 C-0.08875 11.381875 0.4475 10.70125 1 10 C1.99 10.33 2.98 10.66 4 11 C3.63926776 13.61530876 3.20250273 14.79749727 1.3125 16.6875 C-1.57896555 18.32860207 -3.67280695 18.8641962 -7 19 C-10.63381505 17.39436079 -13.09567609 15.5079651 -15 12 C-15.61054874 7.98782257 -15.15249032 6.27868921 -13.1875 2.6875 C-9.50712913 -1.8340985 -5.32309021 -1.43519937 0 0 Z " fill="#E7B04C" transform="translate(271,253)"/>
<path d="M0 0 C7.3102653 -0.23238306 14.61972687 -0.40971275 21.93294621 -0.51812172 C25.32959578 -0.57017493 28.72370782 -0.64066831 32.11889648 -0.75439453 C36.02816632 -0.88451086 39.93643349 -0.93247497 43.84765625 -0.9765625 C45.05833267 -1.02817535 46.26900909 -1.07978821 47.51637268 -1.13296509 C55.82303 -1.13846553 55.82303 -1.13846553 59.37033081 2.29278564 C61.13427572 4.79473931 62.63999421 7.26034038 64 10 C63.67 10.66 63.34 11.32 63 12 C62.278125 11.21625 61.55625 10.4325 60.8125 9.625 C58.16700959 7.15587562 56.39626389 6.06739722 53 5 C53 4.01 53 3.02 53 2 C36.83 2 20.66 2 4 2 C4.66 3.98 5.32 5.96 6 8 C3.30621949 5.48580485 1.55194754 3.32759923 0 0 Z " fill="#EAB44C" transform="translate(49,133)"/>
<path d="M0 0 C10.06700594 -0.48515691 10.06700594 -0.48515691 14.125 1.625 C16.4614508 4.58450435 17 6.22765737 17 10 C16.25 13.25 16.25 13.25 14 16 C9.27900447 17.58573316 4.78080476 18.59360159 0 17 C0 11.39 0 5.78 0 0 Z M3 2 C3 6.29 3 10.58 3 15 C7.70722558 14.63330278 7.70722558 14.63330278 11.9375 12.75 C13.48002451 10.20937139 13.63987836 8.9150014 13 6 C9.39423163 2.96787659 7.77053792 2 3 2 Z " fill="#E9B153" transform="translate(309,253)"/>
<path d="M0 0 C4.62 0 9.24 0 14 0 C14 0.66 14 1.32 14 2 C10.7 2 7.4 2 4 2 C4 3.65 4 5.3 4 7 C5.98 6.67 7.96 6.34 10 6 C10.99 7.32 11.98 8.64 13 10 C10.36 10.33 7.72 10.66 5 11 C5.33 11.99 5.66 12.98 6 14 C8.64 14.33 11.28 14.66 14 15 C14 15.66 14 16.32 14 17 C12.2300132 17.19532961 10.45895721 17.38098882 8.6875 17.5625 C7.70136719 17.66691406 6.71523438 17.77132813 5.69921875 17.87890625 C3 18 3 18 0 17 C0 11.39 0 5.78 0 0 Z " fill="#E5B454" transform="translate(333,253)"/>
<path d="M0 0 C2.5 1.5 2.5 1.5 4 4 C4.31355386 7.03102064 4.23342439 9.96548287 4 13 C3.34 12.34 2.68 11.68 2 11 C1.01 11.495 1.01 11.495 0 12 C-0.12375 10.88625 -0.2475 9.7725 -0.375 8.625 C-0.6465813 4.96896323 -0.6465813 4.96896323 -3 3 C-6.58343976 2.83322718 -6.58343976 2.83322718 -10 3 C-10.33 4.65 -10.66 6.3 -11 8 C-11.33 8 -11.66 8 -12 8 C-12 5.69 -12 3.38 -12 1 C-8.13635227 -1.73675047 -4.35707512 -1.19640997 0 0 Z " fill="#E9B24E" transform="translate(297,253)"/>
<path d="M0 0 C0.99 0 1.98 0 3 0 C3 1.32 3 2.64 3 4 C5.31 4 7.62 4 10 4 C11.76462683 7.08809695 12 8.23312136 12 12 C10.68 11.34 9.36 10.68 8 10 C8 9.34 8 8.68 8 8 C7.443125 8.20625 6.88625 8.4125 6.3125 8.625 C3.21434929 9.12740282 1.68490027 8.59642719 -1 7 C-1.9375 4.5 -1.9375 4.5 -2 2 C-1.34 1.34 -0.68 0.68 0 0 Z " fill="#E5AB3D" transform="translate(379,255)"/>
<path d="M0 0 C2.7824349 1.39121745 3.55210065 3.30164212 5 6 C5 6.66 5 7.32 5 8 C-13.81 8 -32.62 8 -52 8 C-51.67 7.34 -51.34 6.68 -51 6 C-34.17 6 -17.34 6 0 6 C0 4.02 0 2.04 0 0 Z " fill="#E7B24E" transform="translate(130,170)"/>
<path d="M0 0 C1.32 0.33 2.64 0.66 4 1 C4.92963917 4.54953137 5.06960307 6.73650266 4.125 10.3125 C2 13 2 13 -0.20703125 13.59765625 C-2.48464719 13.85231882 -4.70904616 13.99039432 -7 14 C-7.33 13.34 -7.66 12.68 -8 12 C-6.865625 11.608125 -5.73125 11.21625 -4.5625 10.8125 C-0.85120446 9.42440173 -0.85120446 9.42440173 -0.0625 6.5625 C-0.00915979 4.37555119 0 2.1875992 0 0 Z " fill="#E5AF4C" transform="translate(321,256)"/>
<path d="M0 0 C0.66 1.98 1.32 3.96 2 6 C0.68 6 -0.64 6 -2 6 C-2.66 5.01 -3.32 4.02 -4 3 C-5.97747122 2.63702064 -5.97747122 2.63702064 -8.125 2.8125 C-9.40375 2.874375 -10.6825 2.93625 -12 3 C-11.67 2.01 -11.34 1.02 -11 0 C-6.94952424 -1.35015859 -4.2079832 -0.62084998 0 0 Z " fill="#E2B44B" transform="translate(390,253)"/>
<path d="M0 0 C0.99 0 1.98 0 3 0 C3.103125 0.598125 3.20625 1.19625 3.3125 1.8125 C3.82323528 4.05212396 3.82323528 4.05212396 5.4375 5.375 C7.60132694 7.62538002 8.14515602 10.04092468 9 13 C10.32 12.67 11.64 12.34 13 12 C12.67 13.65 12.34 15.3 12 17 C12.66 17.33 13.32 17.66 14 18 C13.01 18 12.02 18 11 18 C9.6496582 16.56298828 9.6496582 16.56298828 8.30078125 14.5703125 C7.81416016 13.85746094 7.32753906 13.14460937 6.82617188 12.41015625 C6.0769043 11.27900391 6.0769043 11.27900391 5.3125 10.125 C4.80138672 9.37863281 4.29027344 8.63226563 3.76367188 7.86328125 C0 2.28560998 0 2.28560998 0 0 Z " fill="#E8B34C" transform="translate(65,156)"/>
<path d="M0 0 C1.32 0 2.64 0 4 0 C4 0.99 4 1.98 4 3 C4.66 3 5.32 3 6 3 C6 4.32 6 5.64 6 7 C8.475 7.99 8.475 7.99 11 9 C10.67 10.65 10.34 12.3 10 14 C6.95483798 11.16667533 4.83131399 8.34499689 2.75 4.75 C2.22921875 3.85796875 1.7084375 2.9659375 1.171875 2.046875 C0.78515625 1.37140625 0.3984375 0.6959375 0 0 Z " fill="#F0B345" transform="translate(55,142)"/>
<path d="M0 0 C0.33 0 0.66 0 1 0 C1.48337596 6.28388747 1.48337596 6.28388747 -0.6875 9.5 C-3 11 -3 11 -5.75 10.75 C-6.4925 10.5025 -7.235 10.255 -8 10 C-6.625 8.5 -6.625 8.5 -5 7 C-4.34 7 -3.68 7 -3 7 C-3 6.34 -3 5.68 -3 5 C-2.34 4.67 -1.68 4.34 -1 4 C-0.34786708 1.97536745 -0.34786708 1.97536745 0 0 Z " fill="#EDB640" transform="translate(299,260)"/>
<path d="M0 0 C1.43655854 -0.08131463 2.8744483 -0.13933559 4.3125 -0.1875 C5.51326172 -0.23970703 5.51326172 -0.23970703 6.73828125 -0.29296875 C9.47851584 0.06198392 10.29171079 0.89366282 12 3 C11.34 3 10.68 3 10 3 C9.67 3.66 9.34 4.32 9 5 C4.545 3.02 4.545 3.02 0 1 C0 0.67 0 0.34 0 0 Z " fill="#DFB25A" transform="translate(311,253)"/>
<path d="M0 0 C1.32 0.33 2.64 0.66 4 1 C4.625 3.8125 4.625 3.8125 5 7 C4.01 8.485 4.01 8.485 3 10 C2.87625 9.195625 2.7525 8.39125 2.625 7.5625 C2.315625 6.2940625 2.315625 6.2940625 2 5 C1.34 4.67 0.68 4.34 0 4 C0 2.68 0 1.36 0 0 Z " fill="#EDB83F" transform="translate(321,256)"/>
<path d="M0 0 C0.66 0.99 1.32 1.98 2 3 C-2.455 3.495 -2.455 3.495 -7 4 C-7 2.68 -7 1.36 -7 0 C-4.27584084 -1.36207958 -2.87220643 -0.86166193 0 0 Z " fill="#E5B655" transform="translate(344,260)"/>
<path d="M0 0 C1.33895632 1.66215268 2.67130142 3.32963607 4 5 C4.5775 5.721875 5.155 6.44375 5.75 7.1875 C7 9 7 9 7 11 C5.68 11 4.36 11 3 11 C2.67 8.69 2.34 6.38 2 4 C1.34 4 0.68 4 0 4 C0 2.68 0 1.36 0 0 Z " fill="#EEB346" transform="translate(121,156)"/>
<path d="M0 0 C1.65 0 3.3 0 5 0 C5.33 0.99 5.66 1.98 6 3 C5.01 4.485 5.01 4.485 4 6 C3.34 6 2.68 6 2 6 C1.67 5.01 1.34 4.02 1 3 C0.34 2.67 -0.32 2.34 -1 2 C-0.67 1.34 -0.34 0.68 0 0 Z " fill="#EAB243" transform="translate(364,254)"/>
<path d="M0 0 C-0.33 0.99 -0.66 1.98 -1 3 C-5.51617599 3.07654536 -9.59085217 3.10228696 -14 2 C-14 1.67 -14 1.34 -14 1 C-12.04175306 0.83232136 -10.08339945 0.66588795 -8.125 0.5 C-6.48917969 0.36078125 -6.48917969 0.36078125 -4.8203125 0.21875 C-3.21670436 0.09437042 -1.60842449 0 0 0 Z " fill="#F1F3EE" transform="translate(322,214)"/>
<path d="M0 0 C1.62580966 0.11398665 3.25067157 0.24155659 4.875 0.375 C5.77992188 0.44460937 6.68484375 0.51421875 7.6171875 0.5859375 C10 1 10 1 12 3 C10.37509046 3.02698189 8.75005367 3.04638757 7.125 3.0625 C5.76761719 3.07990234 5.76761719 3.07990234 4.3828125 3.09765625 C2 3 2 3 0 2 C0 1.34 0 0.68 0 0 Z " fill="#F5F5F2" transform="translate(256,214)"/>
<path d="M0 0 C0.66 0.33 1.32 0.66 2 1 C2 3.97 2 6.94 2 10 C1.34 9.34 0.68 8.68 0 8 C-0.99 8.495 -0.99 8.495 -2 9 C-2 6.69 -2 4.38 -2 2 C-1.34 2 -0.68 2 0 2 C0 1.34 0 0.68 0 0 Z " fill="#E3B257" transform="translate(299,256)"/>
<path d="M0 0 C1.65 0.33 3.3 0.66 5 1 C5 2.32 5 3.64 5 5 C1.62537285 4.45276317 -0.08235 3.9451 -3 2 C-2.01 2 -1.02 2 0 2 C0 1.34 0 0.68 0 0 Z " fill="#E8AA52" transform="translate(288,267)"/>
<path d="M0 0 C2.97 0.495 2.97 0.495 6 1 C5.67 2.32 5.34 3.64 5 5 C2.0625 4.625 2.0625 4.625 -1 4 C-1.33 3.34 -1.66 2.68 -2 2 C-1.34 2 -0.68 2 0 2 C0 1.34 0 0.68 0 0 Z " fill="#D9AA49" transform="translate(262,267)"/>
<path d="M0 0 C2.66735273 2.48952921 4.55746343 4.63408134 6 8 C3.03 7.505 3.03 7.505 0 7 C0 4.69 0 2.38 0 0 Z " fill="#F0B445" transform="translate(115,148)"/>
<path d="M0 0 C0.99 0.33 1.98 0.66 3 1 C3.33 2.65 3.66 4.3 4 6 C3.01 6.33 2.02 6.66 1 7 C-1 4 -1 4 -0.625 1.8125 C-0.41875 1.214375 -0.2125 0.61625 0 0 Z " fill="#E0B14B" transform="translate(378,263)"/>
<path d="M0 0 C0.66 0 1.32 0 2 0 C2.33 2.31 2.66 4.62 3 7 C1.68 7 0.36 7 -1 7 C-0.67 4.69 -0.34 2.38 0 0 Z " fill="#F1A849" transform="translate(321,261)"/>
<path d="M0 0 C1.32 0.33 2.64 0.66 4 1 C4 1.66 4 2.32 4 3 C4.66 3 5.32 3 6 3 C6 3.66 6 4.32 6 5 C5.01 5.33 4.02 5.66 3 6 C2.34 5.67 1.68 5.34 1 5 C0.375 2.4375 0.375 2.4375 0 0 Z " fill="#DCA33C" transform="translate(380,266)"/>
<path d="" fill="#FFFFFF" transform="translate(0,0)"/>
</svg>
